<svg width="318" height="760" viewBox="0 0 318 760" fill="none" xmlns="http://www.w3.org/2000/svg">
<path fill-rule="evenodd" clip-rule="evenodd" d="M193.824 379.441C193.824 430.801 194.024 473.022 194.267 473.266C194.938 473.938 208.489 468.952 215.202 465.563C249.389 448.303 270.528 413.021 268.818 376.073C268.296 364.813 266.984 358.177 263.16 347.471C253.305 319.869 230.484 298.147 200.614 287.934C197.598 286.903 194.837 286.059 194.477 286.059C194.118 286.059 193.824 328.081 193.824 379.441Z" fill="#DC2C02"/>
<path fill-rule="evenodd" clip-rule="evenodd" d="M117.815 288.123C95.7991 295.624 76.8545 309.94 65.1459 327.924C40.089 366.411 44.8998 414.38 77.0422 446.539C88.5053 458.007 103.608 467.212 118.409 471.748L124.941 473.751V379.905C124.941 328.29 124.674 286.068 124.347 286.08C124.02 286.091 121.081 287.01 117.815 288.123Z" fill="#DC2C02"/>
<path fill-rule="evenodd" clip-rule="evenodd" d="M144.772 1.60289C132.766 4.74908 122.172 11.5946 114.889 20.9111C107.298 30.6215 103.733 39.9317 103.033 51.8778C101.553 77.098 118.705 99.5794 144.896 106.75C151.686 108.608 166.979 108.577 174.005 106.69C193.902 101.347 210.389 85.0903 214.767 66.4968C216.334 59.8415 216.328 47.8717 214.754 41.6895C214.072 39.0117 212.066 33.8026 210.295 30.1136C207.682 24.6684 205.792 22.1276 200.252 16.6016C194.564 10.9289 192.176 9.18623 185.907 6.13514C181.77 4.12221 176.046 1.91116 173.188 1.22248C165.83 -0.551115 152.302 -0.369626 144.772 1.60289ZM182.374 47.9034C180.641 41.9359 174.017 34.9945 168.149 32.9974C156.095 28.8947 143.415 33.8692 138.29 44.7113C131.28 59.5443 141.071 75.62 157.746 76.6518C174.286 77.6741 186.784 63.086 182.374 47.9034Z" fill="#DC2C02"/>
<path fill-rule="evenodd" clip-rule="evenodd" d="M144.735 653.273C120.812 660.485 105.132 681.175 105.014 705.683C104.915 726.635 116.475 745.008 135.903 754.775C145.843 759.772 161.319 761.428 172.396 758.68C193.366 753.477 209.71 736.772 213.944 716.217C216.448 704.059 214.963 693.302 209.157 681.53C202.347 667.721 189.547 657.34 174.024 653.034C165.652 650.712 152.883 650.816 144.735 653.273ZM183.1 705.287C183.097 696.058 179.133 689.736 170.705 685.521C161.791 681.062 150.831 682.665 144.089 689.413C136.854 696.654 135.082 707.171 139.603 716.019C145.011 726.604 157.13 731.018 168.794 726.649C177.848 723.259 183.104 715.411 183.1 705.287Z" fill="#DC2C02"/>
<path fill-rule="evenodd" clip-rule="evenodd" d="M72.6843 528.863C72.6843 529.305 87.4032 549.616 95.1506 559.865C102.193 569.179 129.519 604.049 145.328 623.893L159.087 641.164L165.173 633.718C171.496 625.982 180.932 614.083 205.854 582.419C219.763 564.747 246.263 529.272 245.856 528.866C245.662 528.671 205.386 538.053 205.277 538.319C205.244 538.4 203.427 540.964 201.24 544.015C199.052 547.066 194.289 553.842 190.654 559.072C184.127 568.463 171.006 586.075 163.33 595.747L159.382 600.722L157.155 598.125C153.578 593.953 135.675 569.856 123.934 553.41L113.102 538.239L108.926 537.27C98.7476 534.911 75.328 529.277 74.0699 528.886C73.3082 528.649 72.6843 528.638 72.6843 528.863Z" fill="#6ECFB5"/>
<path fill-rule="evenodd" clip-rule="evenodd" d="M156.922 187.648C154.379 190.884 139.192 212.144 139.192 212.468C139.192 212.625 143.557 212.531 148.892 212.258C154.226 211.986 162.96 211.986 168.299 212.258C175.204 212.61 177.911 212.502 177.674 211.883C177.248 210.775 162.759 190.469 160.381 187.648L158.591 185.525L156.922 187.648ZM138.401 229.47C103.219 233.695 67.507 251.427 42.5411 277.067C20.6836 299.513 6.94259 325.931 1.79534 355.402C0.0257465 365.531 -0.545915 383.809 0.579181 394.234C4.44378 430.032 19.2141 460.27 45.0945 485.371C63.6986 503.413 84.632 515.661 109.897 523.285C126.493 528.293 136.987 529.675 158.591 529.699C174.675 529.718 179.117 529.455 187.52 527.983C219.055 522.46 245.39 510.051 268.784 489.694C282.224 477.999 293.947 462.527 302.685 444.954C312.232 425.754 317.03 406.731 317.877 384.724C319.263 348.696 308.957 317.378 286.059 288.04C280.015 280.295 266.796 267.404 258.666 261.324C224.361 235.672 181.436 224.302 138.401 229.47ZM196.319 266.59C226.107 274.342 252.967 293.251 268.447 317.362C295.79 359.955 292.303 415.001 259.814 453.626C253.978 460.564 242.974 470.321 235.112 475.529C219.896 485.608 194.287 494.969 178.577 496.194L175.603 496.427L175.606 382.526C175.607 319.879 175.61 267.247 175.611 265.564L175.614 262.504L182.146 263.552C185.739 264.129 192.116 265.495 196.319 266.59ZM143.943 379.526C143.943 443.574 143.661 496.15 143.316 496.364C142.077 497.13 124.365 493.626 115.615 490.883C61.1071 473.796 26.876 425.023 31.515 371.055C33.8855 343.473 45.3914 318.904 65.1926 299.142C78.4349 285.926 94.1379 276.151 112.243 269.856C120.671 266.925 136.702 263.223 141.37 263.128L143.943 263.077V379.526ZM140.776 546.475C140.776 547.666 158.677 572.876 159.371 572.661C159.8 572.529 162.782 568.704 165.999 564.162C169.216 559.619 173.426 553.674 175.355 550.949L178.861 545.996H159.819C149.345 545.996 140.776 546.212 140.776 546.475Z" fill="black"/>
<path fill-rule="evenodd" clip-rule="evenodd" d="M147.812 131.721C116.143 169.82 70.442 229 72.6867 229C73.1206 229 80.6906 227.409 89.5085 225.466C98.3272 223.522 107.139 221.64 109.089 221.283C112.616 220.638 112.692 220.554 122.945 205.902C137.411 185.23 153.957 163.881 158.284 160.302C159.219 159.53 160.756 161.001 166.978 168.624C177.14 181.075 184.655 191.176 195.387 206.81C200.324 214.002 204.458 220.006 204.572 220.152C204.687 220.298 212.737 222.115 222.461 224.19C244.504 228.892 245.289 229.043 245.289 228.588C245.289 228.142 236.03 215.45 221.878 196.496C211.691 182.852 192.135 158.186 177.278 140.241C161.143 120.752 159.515 118.843 159.023 118.843C158.743 118.843 153.698 124.639 147.812 131.721Z" fill="#6ECFB5"/>
</svg>
